<mxfile host="app.diagrams.net" agent="Mozilla/5.0 (Macintosh; Intel Mac OS X 10_15_7) AppleWebKit/537.36 (KHTML, like Gecko) Chrome/140.0.0.0 Safari/537.36" version="28.2.5">
  <diagram name="Page-1" id="WA0lPVl5pJvD9vc_c7SS">
    <mxGraphModel dx="1209" dy="1378" grid="1" gridSize="10" guides="1" tooltips="1" connect="1" arrows="1" fold="1" page="1" pageScale="1" pageWidth="827" pageHeight="1169" math="0" shadow="0">
      <root>
        <mxCell id="0" />
        <mxCell id="1" parent="0" />
        <mxCell id="fNRUj5ejag9MHIPvJ8dK-53" value="VPC" style="points=[[0,0],[0.25,0],[0.5,0],[0.75,0],[1,0],[1,0.25],[1,0.5],[1,0.75],[1,1],[0.75,1],[0.5,1],[0.25,1],[0,1],[0,0.75],[0,0.5],[0,0.25]];outlineConnect=0;gradientColor=none;html=1;whiteSpace=wrap;fontSize=12;fontStyle=0;container=1;pointerEvents=0;collapsible=0;recursiveResize=0;shape=mxgraph.aws4.group;grIcon=mxgraph.aws4.group_vpc2;strokeColor=#8C4FFF;fillColor=default;verticalAlign=top;align=left;spacingLeft=30;fontColor=#AAB7B8;dashed=0;" parent="1" vertex="1">
          <mxGeometry x="1720" y="540" width="1720" height="760" as="geometry" />
        </mxCell>
        <mxCell id="fNRUj5ejag9MHIPvJ8dK-60" value="&lt;span style=&quot;color: rgb(0, 0, 0); text-align: center;&quot;&gt;Subnet - demo-app-private-subnet-1&lt;/span&gt;" style="points=[[0,0],[0.25,0],[0.5,0],[0.75,0],[1,0],[1,0.25],[1,0.5],[1,0.75],[1,1],[0.75,1],[0.5,1],[0.25,1],[0,1],[0,0.75],[0,0.5],[0,0.25]];outlineConnect=0;gradientColor=none;html=1;whiteSpace=wrap;fontSize=12;fontStyle=0;container=1;pointerEvents=0;collapsible=0;recursiveResize=0;shape=mxgraph.aws4.group;grIcon=mxgraph.aws4.group_security_group;grStroke=0;strokeColor=#00A4A6;fillColor=#E6F6F7;verticalAlign=top;align=left;spacingLeft=30;fontColor=#147EBA;dashed=0;" parent="fNRUj5ejag9MHIPvJ8dK-53" vertex="1">
          <mxGeometry x="980" y="45" width="230" height="700" as="geometry" />
        </mxCell>
        <mxCell id="fNRUj5ejag9MHIPvJ8dK-61" value="&lt;span style=&quot;color: rgb(0, 0, 0); text-align: center;&quot;&gt;Subnet -&amp;nbsp;demo-app-private-subnet-2&lt;/span&gt;" style="points=[[0,0],[0.25,0],[0.5,0],[0.75,0],[1,0],[1,0.25],[1,0.5],[1,0.75],[1,1],[0.75,1],[0.5,1],[0.25,1],[0,1],[0,0.75],[0,0.5],[0,0.25]];outlineConnect=0;gradientColor=none;html=1;whiteSpace=wrap;fontSize=12;fontStyle=0;container=1;pointerEvents=0;collapsible=0;recursiveResize=0;shape=mxgraph.aws4.group;grIcon=mxgraph.aws4.group_security_group;grStroke=0;strokeColor=#00A4A6;fillColor=#E6F6F7;verticalAlign=top;align=left;spacingLeft=30;fontColor=#147EBA;dashed=0;" parent="fNRUj5ejag9MHIPvJ8dK-53" vertex="1">
          <mxGeometry x="1220" y="45" width="230" height="700" as="geometry" />
        </mxCell>
        <mxCell id="fNRUj5ejag9MHIPvJ8dK-62" value="&lt;span style=&quot;color: rgb(0, 0, 0); text-align: center;&quot;&gt;Subnet -&amp;nbsp;demo-app-private-subnet-3&lt;/span&gt;" style="points=[[0,0],[0.25,0],[0.5,0],[0.75,0],[1,0],[1,0.25],[1,0.5],[1,0.75],[1,1],[0.75,1],[0.5,1],[0.25,1],[0,1],[0,0.75],[0,0.5],[0,0.25]];outlineConnect=0;gradientColor=none;html=1;whiteSpace=wrap;fontSize=12;fontStyle=0;container=1;pointerEvents=0;collapsible=0;recursiveResize=0;shape=mxgraph.aws4.group;grIcon=mxgraph.aws4.group_security_group;grStroke=0;strokeColor=#00A4A6;fillColor=#E6F6F7;verticalAlign=top;align=left;spacingLeft=30;fontColor=#147EBA;dashed=0;" parent="fNRUj5ejag9MHIPvJ8dK-53" vertex="1">
          <mxGeometry x="1460" y="45" width="230" height="700" as="geometry" />
        </mxCell>
        <mxCell id="fNRUj5ejag9MHIPvJ8dK-67" value="ASG - demo-app-asg" style="points=[[0,0],[0.25,0],[0.5,0],[0.75,0],[1,0],[1,0.25],[1,0.5],[1,0.75],[1,1],[0.75,1],[0.5,1],[0.25,1],[0,1],[0,0.75],[0,0.5],[0,0.25]];outlineConnect=0;gradientColor=none;html=1;whiteSpace=wrap;fontSize=12;fontStyle=0;container=1;pointerEvents=0;collapsible=0;recursiveResize=0;shape=mxgraph.aws4.groupCenter;grIcon=mxgraph.aws4.group_auto_scaling_group;grStroke=1;strokeColor=#D86613;fillColor=none;verticalAlign=top;align=center;fontColor=#D86613;dashed=1;spacingTop=25;" parent="fNRUj5ejag9MHIPvJ8dK-62" vertex="1">
          <mxGeometry x="-412.5" y="440" width="575" height="220" as="geometry" />
        </mxCell>
        <mxCell id="fNRUj5ejag9MHIPvJ8dK-69" value="EC2 - Flask App" style="sketch=0;points=[[0,0,0],[0.25,0,0],[0.5,0,0],[0.75,0,0],[1,0,0],[0,1,0],[0.25,1,0],[0.5,1,0],[0.75,1,0],[1,1,0],[0,0.25,0],[0,0.5,0],[0,0.75,0],[1,0.25,0],[1,0.5,0],[1,0.75,0]];outlineConnect=0;fontColor=#232F3E;fillColor=#ED7100;strokeColor=#ffffff;dashed=0;verticalLabelPosition=bottom;verticalAlign=top;align=center;html=1;fontSize=12;fontStyle=0;aspect=fixed;shape=mxgraph.aws4.resourceIcon;resIcon=mxgraph.aws4.ec2;" parent="fNRUj5ejag9MHIPvJ8dK-67" vertex="1">
          <mxGeometry x="244" y="71" width="78" height="78" as="geometry" />
        </mxCell>
        <mxCell id="fNRUj5ejag9MHIPvJ8dK-70" value="EC2 - Flask App" style="sketch=0;points=[[0,0,0],[0.25,0,0],[0.5,0,0],[0.75,0,0],[1,0,0],[0,1,0],[0.25,1,0],[0.5,1,0],[0.75,1,0],[1,1,0],[0,0.25,0],[0,0.5,0],[0,0.75,0],[1,0.25,0],[1,0.5,0],[1,0.75,0]];outlineConnect=0;fontColor=#232F3E;fillColor=#ED7100;strokeColor=#ffffff;dashed=0;verticalLabelPosition=bottom;verticalAlign=top;align=center;html=1;fontSize=12;fontStyle=0;aspect=fixed;shape=mxgraph.aws4.resourceIcon;resIcon=mxgraph.aws4.ec2;" parent="fNRUj5ejag9MHIPvJ8dK-67" vertex="1">
          <mxGeometry x="450" y="71" width="78" height="78" as="geometry" />
        </mxCell>
        <mxCell id="fNRUj5ejag9MHIPvJ8dK-63" value="&lt;span style=&quot;color: rgb(0, 0, 0); text-align: center;&quot;&gt;Subnet -&amp;nbsp;demo-app-public-subnet-1&lt;/span&gt;" style="points=[[0,0],[0.25,0],[0.5,0],[0.75,0],[1,0],[1,0.25],[1,0.5],[1,0.75],[1,1],[0.75,1],[0.5,1],[0.25,1],[0,1],[0,0.75],[0,0.5],[0,0.25]];outlineConnect=0;gradientColor=none;html=1;whiteSpace=wrap;fontSize=12;fontStyle=0;container=1;pointerEvents=0;collapsible=0;recursiveResize=0;shape=mxgraph.aws4.group;grIcon=mxgraph.aws4.group_security_group;grStroke=0;strokeColor=#7AA116;fillColor=#F2F6E8;verticalAlign=top;align=left;spacingLeft=30;fontColor=#248814;dashed=0;" parent="fNRUj5ejag9MHIPvJ8dK-53" vertex="1">
          <mxGeometry x="30" y="45" width="230" height="700" as="geometry" />
        </mxCell>
        <mxCell id="fNRUj5ejag9MHIPvJ8dK-74" value="NAT - demo-app-nat-gateway-1" style="sketch=0;outlineConnect=0;fontColor=#232F3E;gradientColor=none;fillColor=#8C4FFF;strokeColor=none;dashed=0;verticalLabelPosition=bottom;verticalAlign=top;align=center;html=1;fontSize=12;fontStyle=0;aspect=fixed;pointerEvents=1;shape=mxgraph.aws4.nat_gateway;" parent="fNRUj5ejag9MHIPvJ8dK-63" vertex="1">
          <mxGeometry x="76" y="95" width="78" height="78" as="geometry" />
        </mxCell>
        <mxCell id="fNRUj5ejag9MHIPvJ8dK-102" value="ALB -&amp;nbsp;demo-app-alb" style="outlineConnect=0;dashed=0;verticalLabelPosition=bottom;verticalAlign=top;align=center;html=1;shape=mxgraph.aws3.application_load_balancer;fillColor=#F58534;gradientColor=none;" parent="fNRUj5ejag9MHIPvJ8dK-63" vertex="1">
          <mxGeometry x="80.5" y="314" width="69" height="72" as="geometry" />
        </mxCell>
        <mxCell id="fNRUj5ejag9MHIPvJ8dK-64" value="&lt;span style=&quot;color: rgb(0, 0, 0); text-align: center;&quot;&gt;Subnet -&amp;nbsp;demo-app-public-subnet-2&lt;/span&gt;" style="points=[[0,0],[0.25,0],[0.5,0],[0.75,0],[1,0],[1,0.25],[1,0.5],[1,0.75],[1,1],[0.75,1],[0.5,1],[0.25,1],[0,1],[0,0.75],[0,0.5],[0,0.25]];outlineConnect=0;gradientColor=none;html=1;whiteSpace=wrap;fontSize=12;fontStyle=0;container=1;pointerEvents=0;collapsible=0;recursiveResize=0;shape=mxgraph.aws4.group;grIcon=mxgraph.aws4.group_security_group;grStroke=0;strokeColor=#7AA116;fillColor=#F2F6E8;verticalAlign=top;align=left;spacingLeft=30;fontColor=#248814;dashed=0;" parent="fNRUj5ejag9MHIPvJ8dK-53" vertex="1">
          <mxGeometry x="270" y="45" width="230" height="700" as="geometry" />
        </mxCell>
        <mxCell id="fNRUj5ejag9MHIPvJ8dK-65" value="&lt;span style=&quot;color: rgb(0, 0, 0); text-align: center;&quot;&gt;Subnet -&amp;nbsp;demo-app-public-subnet-3&lt;/span&gt;" style="points=[[0,0],[0.25,0],[0.5,0],[0.75,0],[1,0],[1,0.25],[1,0.5],[1,0.75],[1,1],[0.75,1],[0.5,1],[0.25,1],[0,1],[0,0.75],[0,0.5],[0,0.25]];outlineConnect=0;gradientColor=none;html=1;whiteSpace=wrap;fontSize=12;fontStyle=0;container=1;pointerEvents=0;collapsible=0;recursiveResize=0;shape=mxgraph.aws4.group;grIcon=mxgraph.aws4.group_security_group;grStroke=0;strokeColor=#7AA116;fillColor=#F2F6E8;verticalAlign=top;align=left;spacingLeft=30;fontColor=#248814;dashed=0;" parent="fNRUj5ejag9MHIPvJ8dK-53" vertex="1">
          <mxGeometry x="510" y="45" width="230" height="700" as="geometry" />
        </mxCell>
        <mxCell id="fNRUj5ejag9MHIPvJ8dK-14" value="demo-app-vpc â†’ 10.0.0.0/16" style="text;html=1;align=center;verticalAlign=middle;whiteSpace=wrap;rounded=0;" parent="fNRUj5ejag9MHIPvJ8dK-53" vertex="1">
          <mxGeometry x="60" width="170" height="30" as="geometry" />
        </mxCell>
        <mxCell id="fNRUj5ejag9MHIPvJ8dK-195" style="edgeStyle=orthogonalEdgeStyle;rounded=0;orthogonalLoop=1;jettySize=auto;html=1;flowAnimation=1;startArrow=classic;startFill=1;" parent="fNRUj5ejag9MHIPvJ8dK-53" target="fNRUj5ejag9MHIPvJ8dK-67" edge="1">
          <mxGeometry relative="1" as="geometry">
            <mxPoint x="899.0000000000005" y="459" as="sourcePoint" />
            <Array as="points">
              <mxPoint x="973" y="459" />
              <mxPoint x="973" y="490" />
            </Array>
          </mxGeometry>
        </mxCell>
        <mxCell id="fNRUj5ejag9MHIPvJ8dK-194" style="edgeStyle=orthogonalEdgeStyle;rounded=0;orthogonalLoop=1;jettySize=auto;html=1;entryX=0.5;entryY=0;entryDx=0;entryDy=0;entryPerimeter=0;startArrow=classic;startFill=1;flowAnimation=1;jumpStyle=sharp;" parent="fNRUj5ejag9MHIPvJ8dK-53" target="fNRUj5ejag9MHIPvJ8dK-102" edge="1">
          <mxGeometry relative="1" as="geometry">
            <mxPoint x="800" y="330" as="sourcePoint" />
          </mxGeometry>
        </mxCell>
        <mxCell id="fNRUj5ejag9MHIPvJ8dK-118" style="edgeStyle=orthogonalEdgeStyle;rounded=0;orthogonalLoop=1;jettySize=auto;html=1;flowAnimation=1;" parent="1" source="fNRUj5ejag9MHIPvJ8dK-101" target="fNRUj5ejag9MHIPvJ8dK-91" edge="1">
          <mxGeometry relative="1" as="geometry" />
        </mxCell>
        <mxCell id="fNRUj5ejag9MHIPvJ8dK-188" value="Access&lt;br&gt;Static Website" style="edgeLabel;html=1;align=center;verticalAlign=middle;resizable=0;points=[];" parent="fNRUj5ejag9MHIPvJ8dK-118" vertex="1" connectable="0">
          <mxGeometry x="-0.6765" y="-2" relative="1" as="geometry">
            <mxPoint x="21" y="-2" as="offset" />
          </mxGeometry>
        </mxCell>
        <mxCell id="fNRUj5ejag9MHIPvJ8dK-101" value="User" style="shape=umlActor;verticalLabelPosition=bottom;verticalAlign=top;html=1;outlineConnect=0;" parent="1" vertex="1">
          <mxGeometry x="1200" y="749.5" width="100" height="140" as="geometry" />
        </mxCell>
        <mxCell id="fNRUj5ejag9MHIPvJ8dK-111" value="AWS Account" style="points=[[0,0],[0.25,0],[0.5,0],[0.75,0],[1,0],[1,0.25],[1,0.5],[1,0.75],[1,1],[0.75,1],[0.5,1],[0.25,1],[0,1],[0,0.75],[0,0.5],[0,0.25]];outlineConnect=0;gradientColor=none;html=1;whiteSpace=wrap;fontSize=12;fontStyle=0;container=1;pointerEvents=0;collapsible=0;recursiveResize=0;shape=mxgraph.aws4.group;grIcon=mxgraph.aws4.group_account;strokeColor=#CD2264;fillColor=none;verticalAlign=top;align=left;spacingLeft=30;fontColor=#CD2264;dashed=0;" parent="1" vertex="1">
          <mxGeometry x="1420" y="320" width="2210" height="999" as="geometry" />
        </mxCell>
        <mxCell id="fNRUj5ejag9MHIPvJ8dK-91" value="S3 - demo-app-frontend-s3-bucket-6789" style="sketch=0;points=[[0,0,0],[0.25,0,0],[0.5,0,0],[0.75,0,0],[1,0,0],[0,1,0],[0.25,1,0],[0.5,1,0],[0.75,1,0],[1,1,0],[0,0.25,0],[0,0.5,0],[0,0.75,0],[1,0.25,0],[1,0.5,0],[1,0.75,0]];outlineConnect=0;fontColor=#232F3E;fillColor=#7AA116;strokeColor=#ffffff;dashed=0;verticalLabelPosition=bottom;verticalAlign=top;align=center;html=1;fontSize=12;fontStyle=0;aspect=fixed;shape=mxgraph.aws4.resourceIcon;resIcon=mxgraph.aws4.s3;" parent="fNRUj5ejag9MHIPvJ8dK-111" vertex="1">
          <mxGeometry x="120" y="460.5" width="78" height="78" as="geometry" />
        </mxCell>
        <mxCell id="fNRUj5ejag9MHIPvJ8dK-130" style="edgeStyle=orthogonalEdgeStyle;rounded=0;orthogonalLoop=1;jettySize=auto;html=1;flowAnimation=1;" parent="fNRUj5ejag9MHIPvJ8dK-111" source="fNRUj5ejag9MHIPvJ8dK-112" target="fNRUj5ejag9MHIPvJ8dK-113" edge="1">
          <mxGeometry relative="1" as="geometry" />
        </mxCell>
        <mxCell id="fNRUj5ejag9MHIPvJ8dK-137" value="On File Upload&lt;br&gt;(Event Notification)" style="edgeLabel;html=1;align=center;verticalAlign=middle;resizable=0;points=[];" parent="fNRUj5ejag9MHIPvJ8dK-130" vertex="1" connectable="0">
          <mxGeometry x="-0.1354" y="3" relative="1" as="geometry">
            <mxPoint x="-1" as="offset" />
          </mxGeometry>
        </mxCell>
        <mxCell id="fNRUj5ejag9MHIPvJ8dK-112" value="S3 -&amp;nbsp;demo-app-frontend-s3-bucket-6789" style="sketch=0;points=[[0,0,0],[0.25,0,0],[0.5,0,0],[0.75,0,0],[1,0,0],[0,1,0],[0.25,1,0],[0.5,1,0],[0.75,1,0],[1,1,0],[0,0.25,0],[0,0.5,0],[0,0.75,0],[1,0.25,0],[1,0.5,0],[1,0.75,0]];outlineConnect=0;fontColor=#232F3E;fillColor=#7AA116;strokeColor=#ffffff;dashed=0;verticalLabelPosition=bottom;verticalAlign=top;align=center;html=1;fontSize=12;fontStyle=0;aspect=fixed;shape=mxgraph.aws4.resourceIcon;resIcon=mxgraph.aws4.s3;" parent="fNRUj5ejag9MHIPvJ8dK-111" vertex="1">
          <mxGeometry x="1110" y="68" width="78" height="78" as="geometry" />
        </mxCell>
        <mxCell id="fNRUj5ejag9MHIPvJ8dK-131" style="edgeStyle=orthogonalEdgeStyle;rounded=0;orthogonalLoop=1;jettySize=auto;html=1;flowAnimation=1;" parent="fNRUj5ejag9MHIPvJ8dK-111" source="fNRUj5ejag9MHIPvJ8dK-113" target="fNRUj5ejag9MHIPvJ8dK-114" edge="1">
          <mxGeometry relative="1" as="geometry" />
        </mxCell>
        <mxCell id="fNRUj5ejag9MHIPvJ8dK-138" value="Trigger Lambda" style="edgeLabel;html=1;align=center;verticalAlign=middle;resizable=0;points=[];" parent="fNRUj5ejag9MHIPvJ8dK-131" vertex="1" connectable="0">
          <mxGeometry x="-0.0928" y="1" relative="1" as="geometry">
            <mxPoint as="offset" />
          </mxGeometry>
        </mxCell>
        <mxCell id="fNRUj5ejag9MHIPvJ8dK-113" value="SNS -&amp;nbsp;&amp;nbsp;emo-app-sns-topic" style="outlineConnect=0;dashed=0;verticalLabelPosition=bottom;verticalAlign=top;align=center;html=1;shape=mxgraph.aws3.sns;fillColor=#D9A741;gradientColor=none;" parent="fNRUj5ejag9MHIPvJ8dK-111" vertex="1">
          <mxGeometry x="1380" y="68.75" width="76.5" height="76.5" as="geometry" />
        </mxCell>
        <mxCell id="fNRUj5ejag9MHIPvJ8dK-114" value="Lambda:&amp;nbsp;demo-app-metadata-lambda" style="outlineConnect=0;dashed=0;verticalLabelPosition=bottom;verticalAlign=top;align=center;html=1;shape=mxgraph.aws3.lambda;fillColor=#F58534;gradientColor=none;" parent="fNRUj5ejag9MHIPvJ8dK-111" vertex="1">
          <mxGeometry x="1640" y="60.5" width="76.5" height="93" as="geometry" />
        </mxCell>
        <mxCell id="fNRUj5ejag9MHIPvJ8dK-116" value="demo-app-file-metadata-dynamodb" style="sketch=0;points=[[0,0,0],[0.25,0,0],[0.5,0,0],[0.75,0,0],[1,0,0],[0,1,0],[0.25,1,0],[0.5,1,0],[0.75,1,0],[1,1,0],[0,0.25,0],[0,0.5,0],[0,0.75,0],[1,0.25,0],[1,0.5,0],[1,0.75,0]];outlineConnect=0;fontColor=#232F3E;fillColor=#C925D1;strokeColor=#ffffff;dashed=0;verticalLabelPosition=bottom;verticalAlign=top;align=center;html=1;fontSize=12;fontStyle=0;aspect=fixed;shape=mxgraph.aws4.resourceIcon;resIcon=mxgraph.aws4.dynamodb;" parent="fNRUj5ejag9MHIPvJ8dK-111" vertex="1">
          <mxGeometry x="1900" y="68" width="78" height="78" as="geometry" />
        </mxCell>
        <mxCell id="fNRUj5ejag9MHIPvJ8dK-117" value="RDS -&amp;nbsp;my-demo-db" style="outlineConnect=0;dashed=0;verticalLabelPosition=bottom;verticalAlign=top;align=center;html=1;shape=mxgraph.aws3.dynamo_db;fillColor=#2E73B8;gradientColor=none;" parent="fNRUj5ejag9MHIPvJ8dK-111" vertex="1">
          <mxGeometry x="1394" y="530" width="72" height="81" as="geometry" />
        </mxCell>
        <mxCell id="fNRUj5ejag9MHIPvJ8dK-68" value="EC2 - Flask App" style="sketch=0;points=[[0,0,0],[0.25,0,0],[0.5,0,0],[0.75,0,0],[1,0,0],[0,1,0],[0.25,1,0],[0.5,1,0],[0.75,1,0],[1,1,0],[0,0.25,0],[0,0.5,0],[0,0.75,0],[1,0.25,0],[1,0.5,0],[1,0.75,0]];outlineConnect=0;fontColor=#232F3E;fillColor=#ED7100;strokeColor=#ffffff;dashed=0;verticalLabelPosition=bottom;verticalAlign=top;align=center;html=1;fontSize=12;fontStyle=0;aspect=fixed;shape=mxgraph.aws4.resourceIcon;resIcon=mxgraph.aws4.ec2;" parent="fNRUj5ejag9MHIPvJ8dK-111" vertex="1">
          <mxGeometry x="1394" y="776" width="78" height="78" as="geometry" />
        </mxCell>
        <mxCell id="fNRUj5ejag9MHIPvJ8dK-73" value="EC2 - Bastion Host" style="sketch=0;points=[[0,0,0],[0.25,0,0],[0.5,0,0],[0.75,0,0],[1,0,0],[0,1,0],[0.25,1,0],[0.5,1,0],[0.75,1,0],[1,1,0],[0,0.25,0],[0,0.5,0],[0,0.75,0],[1,0.25,0],[1,0.5,0],[1,0.75,0]];outlineConnect=0;fontColor=#232F3E;fillColor=#ED7100;strokeColor=#ffffff;dashed=0;verticalLabelPosition=bottom;verticalAlign=top;align=center;html=1;fontSize=12;fontStyle=0;aspect=fixed;shape=mxgraph.aws4.resourceIcon;resIcon=mxgraph.aws4.ec2;" parent="fNRUj5ejag9MHIPvJ8dK-111" vertex="1">
          <mxGeometry x="406" y="790" width="78" height="78" as="geometry" />
        </mxCell>
        <mxCell id="fNRUj5ejag9MHIPvJ8dK-127" style="edgeStyle=orthogonalEdgeStyle;rounded=0;orthogonalLoop=1;jettySize=auto;html=1;entryX=1;entryY=0.5;entryDx=0;entryDy=0;entryPerimeter=0;startArrow=classic;startFill=1;flowAnimation=1;jumpStyle=sharp;" parent="fNRUj5ejag9MHIPvJ8dK-111" target="fNRUj5ejag9MHIPvJ8dK-73" edge="1">
          <mxGeometry relative="1" as="geometry">
            <mxPoint x="1100" y="830" as="sourcePoint" />
          </mxGeometry>
        </mxCell>
        <mxCell id="fNRUj5ejag9MHIPvJ8dK-132" style="edgeStyle=orthogonalEdgeStyle;rounded=0;orthogonalLoop=1;jettySize=auto;html=1;entryX=0;entryY=0.5;entryDx=0;entryDy=0;entryPerimeter=0;flowAnimation=1;" parent="fNRUj5ejag9MHIPvJ8dK-111" source="fNRUj5ejag9MHIPvJ8dK-114" target="fNRUj5ejag9MHIPvJ8dK-116" edge="1">
          <mxGeometry relative="1" as="geometry" />
        </mxCell>
        <mxCell id="fNRUj5ejag9MHIPvJ8dK-139" value="Write Metadata" style="edgeLabel;html=1;align=center;verticalAlign=middle;resizable=0;points=[];" parent="fNRUj5ejag9MHIPvJ8dK-132" vertex="1" connectable="0">
          <mxGeometry x="-0.1566" relative="1" as="geometry">
            <mxPoint as="offset" />
          </mxGeometry>
        </mxCell>
        <mxCell id="fNRUj5ejag9MHIPvJ8dK-145" style="edgeStyle=orthogonalEdgeStyle;rounded=0;orthogonalLoop=1;jettySize=auto;html=1;startArrow=classic;startFill=1;jumpStyle=sharp;flowAnimation=1;" parent="fNRUj5ejag9MHIPvJ8dK-111" edge="1">
          <mxGeometry relative="1" as="geometry">
            <mxPoint x="445.0000000000002" y="420" as="sourcePoint" />
            <mxPoint x="1347.5" y="762" as="targetPoint" />
            <Array as="points">
              <mxPoint x="445" y="492" />
              <mxPoint x="680" y="492" />
              <mxPoint x="680" y="762" />
            </Array>
          </mxGeometry>
        </mxCell>
        <mxCell id="fNRUj5ejag9MHIPvJ8dK-158" value="Outbound Internet" style="edgeLabel;html=1;align=center;verticalAlign=middle;resizable=0;points=[];" parent="fNRUj5ejag9MHIPvJ8dK-145" vertex="1" connectable="0">
          <mxGeometry x="0.0152" relative="1" as="geometry">
            <mxPoint x="15" as="offset" />
          </mxGeometry>
        </mxCell>
        <mxCell id="fNRUj5ejag9MHIPvJ8dK-159" value="IAM Role -&amp;nbsp;&lt;br&gt;demo-app-s3-dynamo-iam-role" style="outlineConnect=0;dashed=0;verticalLabelPosition=bottom;verticalAlign=top;align=center;html=1;shape=mxgraph.aws3.iam;fillColor=#759C3E;gradientColor=none;" parent="fNRUj5ejag9MHIPvJ8dK-111" vertex="1">
          <mxGeometry x="2100" y="449" width="42" height="81" as="geometry" />
        </mxCell>
        <mxCell id="fNRUj5ejag9MHIPvJ8dK-185" value="IAM Role -&amp;nbsp;&lt;br&gt;demo-app-lambda-iam-role" style="outlineConnect=0;dashed=0;verticalLabelPosition=bottom;verticalAlign=top;align=center;html=1;shape=mxgraph.aws3.iam;fillColor=#759C3E;gradientColor=none;" parent="fNRUj5ejag9MHIPvJ8dK-111" vertex="1">
          <mxGeometry x="2100" y="224" width="42" height="81" as="geometry" />
        </mxCell>
        <mxCell id="fNRUj5ejag9MHIPvJ8dK-187" style="edgeStyle=orthogonalEdgeStyle;rounded=0;orthogonalLoop=1;jettySize=auto;html=1;entryX=0.5;entryY=0;entryDx=0;entryDy=0;entryPerimeter=0;startArrow=classic;startFill=1;flowAnimation=1;" parent="fNRUj5ejag9MHIPvJ8dK-111" source="fNRUj5ejag9MHIPvJ8dK-185" target="fNRUj5ejag9MHIPvJ8dK-114" edge="1">
          <mxGeometry relative="1" as="geometry">
            <Array as="points">
              <mxPoint x="2120" y="40" />
              <mxPoint x="1678" y="40" />
            </Array>
          </mxGeometry>
        </mxCell>
        <mxCell id="fNRUj5ejag9MHIPvJ8dK-192" value="S3/DynamoDB Access" style="edgeLabel;html=1;align=center;verticalAlign=middle;resizable=0;points=[];" parent="fNRUj5ejag9MHIPvJ8dK-187" vertex="1" connectable="0">
          <mxGeometry x="-0.5966" y="-3" relative="1" as="geometry">
            <mxPoint as="offset" />
          </mxGeometry>
        </mxCell>
        <mxCell id="fNRUj5ejag9MHIPvJ8dK-119" style="edgeStyle=orthogonalEdgeStyle;rounded=0;orthogonalLoop=1;jettySize=auto;html=1;entryX=0;entryY=0.5;entryDx=0;entryDy=0;entryPerimeter=0;startArrow=classic;startFill=1;flowAnimation=1;" parent="fNRUj5ejag9MHIPvJ8dK-111" source="fNRUj5ejag9MHIPvJ8dK-91" target="fNRUj5ejag9MHIPvJ8dK-102" edge="1">
          <mxGeometry relative="1" as="geometry">
            <Array as="points">
              <mxPoint x="360" y="500" />
              <mxPoint x="360" y="615" />
            </Array>
          </mxGeometry>
        </mxCell>
        <mxCell id="fNRUj5ejag9MHIPvJ8dK-142" value="Forward Traffic" style="edgeLabel;html=1;align=center;verticalAlign=middle;resizable=0;points=[];" parent="fNRUj5ejag9MHIPvJ8dK-119" vertex="1" connectable="0">
          <mxGeometry x="0.0211" relative="1" as="geometry">
            <mxPoint y="45" as="offset" />
          </mxGeometry>
        </mxCell>
        <mxCell id="fNRUj5ejag9MHIPvJ8dK-196" value="&lt;span style=&quot;color: rgb(0, 0, 0); text-wrap-mode: nowrap; background-color: rgb(255, 255, 255);&quot;&gt;SG: &lt;br&gt;demo-app-db-sg&lt;/span&gt;" style="fillColor=none;strokeColor=#DD3522;verticalAlign=top;fontStyle=0;fontColor=#DD3522;whiteSpace=wrap;html=1;" parent="fNRUj5ejag9MHIPvJ8dK-111" vertex="1">
          <mxGeometry x="1101" y="370.5" width="96" height="96" as="geometry" />
        </mxCell>
        <mxCell id="fNRUj5ejag9MHIPvJ8dK-197" value="&lt;span style=&quot;color: rgb(0, 0, 0); text-wrap-mode: nowrap; background-color: rgb(255, 255, 255);&quot;&gt;SG: &lt;br&gt;demo-app-lb-sg&lt;/span&gt;" style="fillColor=none;strokeColor=#DD3522;verticalAlign=top;fontStyle=0;fontColor=#DD3522;whiteSpace=wrap;html=1;" parent="fNRUj5ejag9MHIPvJ8dK-111" vertex="1">
          <mxGeometry x="1101" y="500" width="96" height="96" as="geometry" />
        </mxCell>
        <mxCell id="fNRUj5ejag9MHIPvJ8dK-198" value="&lt;span style=&quot;color: rgb(0, 0, 0); text-wrap-mode: nowrap; background-color: rgb(255, 255, 255);&quot;&gt;SG: &lt;br&gt;demo-app-lt-asg&lt;br&gt;-sg&amp;nbsp;&lt;/span&gt;" style="fillColor=none;strokeColor=#DD3522;verticalAlign=top;fontStyle=0;fontColor=#DD3522;whiteSpace=wrap;html=1;" parent="fNRUj5ejag9MHIPvJ8dK-111" vertex="1">
          <mxGeometry x="1101" y="630" width="96" height="96" as="geometry" />
        </mxCell>
        <mxCell id="fNRUj5ejag9MHIPvJ8dK-199" value="&lt;span style=&quot;color: rgb(0, 0, 0); text-wrap-mode: nowrap; background-color: rgb(255, 255, 255);&quot;&gt;SG: &lt;br&gt;demo-app-&lt;br&gt;bastion-host-sg&lt;/span&gt;" style="fillColor=none;strokeColor=#DD3522;verticalAlign=top;fontStyle=0;fontColor=#DD3522;whiteSpace=wrap;html=1;" parent="fNRUj5ejag9MHIPvJ8dK-111" vertex="1">
          <mxGeometry x="1101" y="781" width="96" height="96" as="geometry" />
        </mxCell>
        <mxCell id="fNRUj5ejag9MHIPvJ8dK-122" style="edgeStyle=orthogonalEdgeStyle;rounded=0;orthogonalLoop=1;jettySize=auto;html=1;startArrow=classic;startFill=1;jumpStyle=sharp;flowAnimation=1;" parent="1" source="fNRUj5ejag9MHIPvJ8dK-102" edge="1">
          <mxGeometry relative="1" as="geometry">
            <mxPoint x="2770" y="1135" as="targetPoint" />
            <Array as="points">
              <mxPoint x="2040" y="935" />
              <mxPoint x="2040" y="1230" />
              <mxPoint x="2710" y="1230" />
              <mxPoint x="2710" y="1135" />
            </Array>
          </mxGeometry>
        </mxCell>
        <mxCell id="fNRUj5ejag9MHIPvJ8dK-154" value="Forward Traffic" style="edgeLabel;html=1;align=center;verticalAlign=middle;resizable=0;points=[];" parent="fNRUj5ejag9MHIPvJ8dK-122" vertex="1" connectable="0">
          <mxGeometry x="-0.1111" relative="1" as="geometry">
            <mxPoint as="offset" />
          </mxGeometry>
        </mxCell>
        <mxCell id="fNRUj5ejag9MHIPvJ8dK-126" style="edgeStyle=orthogonalEdgeStyle;rounded=0;orthogonalLoop=1;jettySize=auto;html=1;entryX=0;entryY=0.5;entryDx=0;entryDy=0;entryPerimeter=0;startArrow=classicThin;startFill=1;flowAnimation=1;" parent="1" target="fNRUj5ejag9MHIPvJ8dK-117" edge="1">
          <mxGeometry relative="1" as="geometry">
            <mxPoint x="2619.0000000000005" y="738.9999999999998" as="sourcePoint" />
          </mxGeometry>
        </mxCell>
        <mxCell id="fNRUj5ejag9MHIPvJ8dK-128" style="edgeStyle=orthogonalEdgeStyle;rounded=0;orthogonalLoop=1;jettySize=auto;html=1;entryX=1;entryY=0.5;entryDx=0;entryDy=0;entryPerimeter=0;startArrow=classic;startFill=1;flowAnimation=1;" parent="1" source="fNRUj5ejag9MHIPvJ8dK-67" target="fNRUj5ejag9MHIPvJ8dK-117" edge="1">
          <mxGeometry relative="1" as="geometry">
            <Array as="points">
              <mxPoint x="2990" y="891" />
            </Array>
          </mxGeometry>
        </mxCell>
        <mxCell id="fNRUj5ejag9MHIPvJ8dK-191" value="Read/Write User Data" style="edgeLabel;html=1;align=center;verticalAlign=middle;resizable=0;points=[];" parent="fNRUj5ejag9MHIPvJ8dK-128" vertex="1" connectable="0">
          <mxGeometry x="-0.2838" y="-1" relative="1" as="geometry">
            <mxPoint as="offset" />
          </mxGeometry>
        </mxCell>
        <mxCell id="fNRUj5ejag9MHIPvJ8dK-129" style="edgeStyle=orthogonalEdgeStyle;rounded=0;orthogonalLoop=1;jettySize=auto;html=1;entryX=0.513;entryY=1.179;entryDx=0;entryDy=0;entryPerimeter=0;startArrow=classic;startFill=1;flowAnimation=1;" parent="1" source="fNRUj5ejag9MHIPvJ8dK-67" target="fNRUj5ejag9MHIPvJ8dK-112" edge="1">
          <mxGeometry relative="1" as="geometry">
            <Array as="points">
              <mxPoint x="3055" y="660" />
              <mxPoint x="2570" y="660" />
            </Array>
          </mxGeometry>
        </mxCell>
        <mxCell id="fNRUj5ejag9MHIPvJ8dK-136" value="File Upload/Download" style="edgeLabel;html=1;align=center;verticalAlign=middle;resizable=0;points=[];" parent="fNRUj5ejag9MHIPvJ8dK-129" vertex="1" connectable="0">
          <mxGeometry x="-0.4944" y="-1" relative="1" as="geometry">
            <mxPoint x="4" y="126" as="offset" />
          </mxGeometry>
        </mxCell>
        <mxCell id="fNRUj5ejag9MHIPvJ8dK-133" style="edgeStyle=orthogonalEdgeStyle;rounded=0;orthogonalLoop=1;jettySize=auto;html=1;flowAnimation=1;" parent="1" source="fNRUj5ejag9MHIPvJ8dK-116" target="fNRUj5ejag9MHIPvJ8dK-67" edge="1">
          <mxGeometry relative="1" as="geometry">
            <Array as="points">
              <mxPoint x="3359" y="660" />
              <mxPoint x="3120" y="660" />
            </Array>
          </mxGeometry>
        </mxCell>
        <mxCell id="fNRUj5ejag9MHIPvJ8dK-135" value="Read Metadata" style="edgeLabel;html=1;align=center;verticalAlign=middle;resizable=0;points=[];" parent="fNRUj5ejag9MHIPvJ8dK-133" vertex="1" connectable="0">
          <mxGeometry x="0.2772" y="2" relative="1" as="geometry">
            <mxPoint y="104" as="offset" />
          </mxGeometry>
        </mxCell>
        <mxCell id="fNRUj5ejag9MHIPvJ8dK-143" style="edgeStyle=orthogonalEdgeStyle;rounded=0;orthogonalLoop=1;jettySize=auto;html=1;flowAnimation=1;" parent="1" source="fNRUj5ejag9MHIPvJ8dK-73" target="fNRUj5ejag9MHIPvJ8dK-67" edge="1">
          <mxGeometry relative="1" as="geometry">
            <Array as="points">
              <mxPoint x="1865" y="1270" />
              <mxPoint x="3055" y="1270" />
            </Array>
          </mxGeometry>
        </mxCell>
        <mxCell id="fNRUj5ejag9MHIPvJ8dK-155" value="SSH EC2" style="edgeLabel;html=1;align=center;verticalAlign=middle;resizable=0;points=[];" parent="fNRUj5ejag9MHIPvJ8dK-143" vertex="1" connectable="0">
          <mxGeometry x="-0.4282" y="1" relative="1" as="geometry">
            <mxPoint as="offset" />
          </mxGeometry>
        </mxCell>
        <mxCell id="fNRUj5ejag9MHIPvJ8dK-186" style="edgeStyle=orthogonalEdgeStyle;rounded=0;orthogonalLoop=1;jettySize=auto;html=1;entryX=1;entryY=0.5;entryDx=0;entryDy=0;startArrow=classic;startFill=1;flowAnimation=1;" parent="1" source="fNRUj5ejag9MHIPvJ8dK-159" target="fNRUj5ejag9MHIPvJ8dK-67" edge="1">
          <mxGeometry relative="1" as="geometry">
            <Array as="points">
              <mxPoint x="3380" y="809" />
              <mxPoint x="3380" y="1135" />
            </Array>
          </mxGeometry>
        </mxCell>
        <mxCell id="fNRUj5ejag9MHIPvJ8dK-193" value="S3/DynamoDB Access" style="edgeLabel;html=1;align=center;verticalAlign=middle;resizable=0;points=[];" parent="fNRUj5ejag9MHIPvJ8dK-186" vertex="1" connectable="0">
          <mxGeometry x="0.0715" y="3" relative="1" as="geometry">
            <mxPoint as="offset" />
          </mxGeometry>
        </mxCell>
      </root>
    </mxGraphModel>
  </diagram>
</mxfile>
